<mxfile host="app.diagrams.net" agent="Mozilla/5.0 (Macintosh; Intel Mac OS X 10_15_7) AppleWebKit/537.36 (KHTML, like Gecko) Chrome/134.0.0.0 Safari/537.36" version="26.1.0">
  <diagram name="Page-1" id="lrx0XXhlTJY8DyY93Emj">
    <mxGraphModel dx="1957" dy="1483" grid="0" gridSize="10" guides="1" tooltips="1" connect="1" arrows="1" fold="1" page="0" pageScale="1" pageWidth="850" pageHeight="1100" math="0" shadow="0">
      <root>
        <mxCell id="0" />
        <mxCell id="1" parent="0" />
        <mxCell id="wZhwh8XhNNYU95tNjidS-49" value="" style="ellipse;shape=cloud;whiteSpace=wrap;html=1;" vertex="1" parent="1">
          <mxGeometry x="557.5" y="751" width="228" height="197" as="geometry" />
        </mxCell>
        <mxCell id="wZhwh8XhNNYU95tNjidS-10" value="" style="group" vertex="1" connectable="0" parent="1">
          <mxGeometry x="490" y="-210" width="330" height="205" as="geometry" />
        </mxCell>
        <mxCell id="wZhwh8XhNNYU95tNjidS-3" value="&lt;font style=&quot;font-size: 20px;&quot;&gt;SERVER - Backend&lt;/font&gt;&lt;div&gt;&lt;span style=&quot;font-size: 20px;&quot;&gt;&lt;br&gt;&lt;/span&gt;&lt;div&gt;&lt;br&gt;&lt;/div&gt;&lt;div&gt;&lt;br&gt;&lt;/div&gt;&lt;div&gt;&lt;br&gt;&lt;/div&gt;&lt;div&gt;&lt;br&gt;&lt;/div&gt;&lt;div&gt;&lt;br&gt;&lt;/div&gt;&lt;div&gt;&lt;br&gt;&lt;/div&gt;&lt;div&gt;&lt;br&gt;&lt;/div&gt;&lt;/div&gt;" style="shape=cube;whiteSpace=wrap;html=1;boundedLbl=1;backgroundOutline=1;darkOpacity=0.05;darkOpacity2=0.1;" vertex="1" parent="wZhwh8XhNNYU95tNjidS-10">
          <mxGeometry width="330" height="205" as="geometry" />
        </mxCell>
        <mxCell id="wZhwh8XhNNYU95tNjidS-1" value="MariaDB" style="shape=cylinder3;whiteSpace=wrap;html=1;boundedLbl=1;backgroundOutline=1;size=15;fontSize=14;" vertex="1" parent="wZhwh8XhNNYU95tNjidS-10">
          <mxGeometry x="200" y="87.5" width="80" height="80" as="geometry" />
        </mxCell>
        <mxCell id="wZhwh8XhNNYU95tNjidS-19" value="" style="edgeStyle=orthogonalEdgeStyle;rounded=0;orthogonalLoop=1;jettySize=auto;html=1;" edge="1" parent="wZhwh8XhNNYU95tNjidS-10" source="wZhwh8XhNNYU95tNjidS-4" target="wZhwh8XhNNYU95tNjidS-1">
          <mxGeometry relative="1" as="geometry" />
        </mxCell>
        <mxCell id="wZhwh8XhNNYU95tNjidS-4" value="Node&lt;div&gt;ExpressJS&lt;/div&gt;" style="whiteSpace=wrap;html=1;aspect=fixed;fontSize=14;" vertex="1" parent="wZhwh8XhNNYU95tNjidS-10">
          <mxGeometry x="60" y="80" width="95" height="95" as="geometry" />
        </mxCell>
        <mxCell id="wZhwh8XhNNYU95tNjidS-11" value="" style="group" vertex="1" connectable="0" parent="1">
          <mxGeometry x="-20" y="-210" width="330" height="205" as="geometry" />
        </mxCell>
        <mxCell id="wZhwh8XhNNYU95tNjidS-5" value="&lt;font style=&quot;font-size: 20px;&quot;&gt;SERVER - Frontend&lt;/font&gt;&lt;div&gt;&lt;span style=&quot;font-size: 20px;&quot;&gt;&lt;br&gt;&lt;/span&gt;&lt;div&gt;&lt;br&gt;&lt;/div&gt;&lt;div&gt;&lt;br&gt;&lt;/div&gt;&lt;div&gt;&lt;br&gt;&lt;/div&gt;&lt;div&gt;&lt;br&gt;&lt;/div&gt;&lt;div&gt;&lt;br&gt;&lt;/div&gt;&lt;div&gt;&lt;br&gt;&lt;/div&gt;&lt;div&gt;&lt;br&gt;&lt;/div&gt;&lt;/div&gt;" style="shape=cube;whiteSpace=wrap;html=1;boundedLbl=1;backgroundOutline=1;darkOpacity=0.05;darkOpacity2=0.1;" vertex="1" parent="wZhwh8XhNNYU95tNjidS-11">
          <mxGeometry width="330" height="205" as="geometry" />
        </mxCell>
        <mxCell id="wZhwh8XhNNYU95tNjidS-9" value="Node&lt;div&gt;HTML, CSS&lt;/div&gt;&lt;div&gt;Vanilla JS&lt;/div&gt;" style="whiteSpace=wrap;html=1;aspect=fixed;fontSize=14;" vertex="1" parent="wZhwh8XhNNYU95tNjidS-11">
          <mxGeometry x="130" y="80" width="100" height="100" as="geometry" />
        </mxCell>
        <mxCell id="wZhwh8XhNNYU95tNjidS-13" value="&lt;font style=&quot;font-size: 20px;&quot;&gt;KLIENT:&amp;nbsp;&lt;/font&gt;&lt;div&gt;&lt;font style=&quot;font-size: 20px;&quot;&gt;Nettleser&lt;/font&gt;&lt;/div&gt;" style="shape=note;whiteSpace=wrap;html=1;backgroundOutline=1;darkOpacity=0.05;" vertex="1" parent="1">
          <mxGeometry x="-310" y="-218" width="150" height="200" as="geometry" />
        </mxCell>
        <mxCell id="wZhwh8XhNNYU95tNjidS-15" style="edgeStyle=orthogonalEdgeStyle;rounded=0;orthogonalLoop=1;jettySize=auto;html=1;" edge="1" parent="1" source="wZhwh8XhNNYU95tNjidS-5" target="wZhwh8XhNNYU95tNjidS-3">
          <mxGeometry relative="1" as="geometry" />
        </mxCell>
        <mxCell id="wZhwh8XhNNYU95tNjidS-16" style="edgeStyle=orthogonalEdgeStyle;rounded=0;orthogonalLoop=1;jettySize=auto;html=1;entryX=0;entryY=0;entryDx=0;entryDy=92.5;entryPerimeter=0;" edge="1" parent="1" source="wZhwh8XhNNYU95tNjidS-13" target="wZhwh8XhNNYU95tNjidS-5">
          <mxGeometry relative="1" as="geometry" />
        </mxCell>
        <mxCell id="wZhwh8XhNNYU95tNjidS-20" value="" style="group" vertex="1" connectable="0" parent="1">
          <mxGeometry x="498" y="185" width="330" height="205" as="geometry" />
        </mxCell>
        <mxCell id="wZhwh8XhNNYU95tNjidS-21" value="&lt;font style=&quot;font-size: 20px;&quot;&gt;SERVER - Backend&lt;/font&gt;&lt;div&gt;&lt;span style=&quot;font-size: 20px;&quot;&gt;&lt;br&gt;&lt;/span&gt;&lt;div&gt;&lt;br&gt;&lt;/div&gt;&lt;div&gt;&lt;br&gt;&lt;/div&gt;&lt;div&gt;&lt;br&gt;&lt;/div&gt;&lt;div&gt;&lt;br&gt;&lt;/div&gt;&lt;div&gt;&lt;br&gt;&lt;/div&gt;&lt;div&gt;&lt;br&gt;&lt;/div&gt;&lt;div&gt;&lt;br&gt;&lt;/div&gt;&lt;/div&gt;" style="shape=cube;whiteSpace=wrap;html=1;boundedLbl=1;backgroundOutline=1;darkOpacity=0.05;darkOpacity2=0.1;" vertex="1" parent="wZhwh8XhNNYU95tNjidS-20">
          <mxGeometry width="330" height="205" as="geometry" />
        </mxCell>
        <mxCell id="wZhwh8XhNNYU95tNjidS-22" value="MariaDB" style="shape=cylinder3;whiteSpace=wrap;html=1;boundedLbl=1;backgroundOutline=1;size=15;fontSize=14;" vertex="1" parent="wZhwh8XhNNYU95tNjidS-20">
          <mxGeometry x="200" y="87.5" width="80" height="80" as="geometry" />
        </mxCell>
        <mxCell id="wZhwh8XhNNYU95tNjidS-23" value="" style="edgeStyle=orthogonalEdgeStyle;rounded=0;orthogonalLoop=1;jettySize=auto;html=1;" edge="1" parent="wZhwh8XhNNYU95tNjidS-20" source="wZhwh8XhNNYU95tNjidS-24" target="wZhwh8XhNNYU95tNjidS-22">
          <mxGeometry relative="1" as="geometry" />
        </mxCell>
        <mxCell id="wZhwh8XhNNYU95tNjidS-24" value="Node&lt;div&gt;ExpressJS&lt;/div&gt;" style="whiteSpace=wrap;html=1;aspect=fixed;fontSize=14;" vertex="1" parent="wZhwh8XhNNYU95tNjidS-20">
          <mxGeometry x="60" y="80" width="95" height="95" as="geometry" />
        </mxCell>
        <mxCell id="wZhwh8XhNNYU95tNjidS-25" value="" style="group" vertex="1" connectable="0" parent="1">
          <mxGeometry x="-12" y="185" width="380" height="210" as="geometry" />
        </mxCell>
        <mxCell id="wZhwh8XhNNYU95tNjidS-31" value="&lt;font style=&quot;font-size: 20px;&quot;&gt;SERVER - Frontend&lt;/font&gt;&lt;div&gt;&lt;span style=&quot;font-size: 20px;&quot;&gt;&lt;br&gt;&lt;/span&gt;&lt;div&gt;&lt;br&gt;&lt;/div&gt;&lt;div&gt;&lt;br&gt;&lt;/div&gt;&lt;div&gt;&lt;br&gt;&lt;/div&gt;&lt;/div&gt;" style="ellipse;shape=cloud;whiteSpace=wrap;html=1;" vertex="1" parent="wZhwh8XhNNYU95tNjidS-25">
          <mxGeometry x="-40" y="-29" width="410" height="240" as="geometry" />
        </mxCell>
        <mxCell id="wZhwh8XhNNYU95tNjidS-27" value="Node&lt;div&gt;HTML, CSS&lt;/div&gt;&lt;div&gt;Vanilla JS&lt;/div&gt;" style="whiteSpace=wrap;html=1;aspect=fixed;fontSize=14;" vertex="1" parent="wZhwh8XhNNYU95tNjidS-25">
          <mxGeometry x="130" y="80" width="100" height="100" as="geometry" />
        </mxCell>
        <mxCell id="wZhwh8XhNNYU95tNjidS-28" value="&lt;font style=&quot;font-size: 20px;&quot;&gt;KLIENT:&amp;nbsp;&lt;/font&gt;&lt;div&gt;&lt;font style=&quot;font-size: 20px;&quot;&gt;Nettleser&lt;/font&gt;&lt;/div&gt;" style="shape=note;whiteSpace=wrap;html=1;backgroundOutline=1;darkOpacity=0.05;" vertex="1" parent="1">
          <mxGeometry x="-302" y="177" width="150" height="200" as="geometry" />
        </mxCell>
        <mxCell id="wZhwh8XhNNYU95tNjidS-29" style="edgeStyle=orthogonalEdgeStyle;rounded=0;orthogonalLoop=1;jettySize=auto;html=1;" edge="1" target="wZhwh8XhNNYU95tNjidS-21" parent="1">
          <mxGeometry relative="1" as="geometry">
            <mxPoint x="318" y="287.5" as="sourcePoint" />
          </mxGeometry>
        </mxCell>
        <mxCell id="wZhwh8XhNNYU95tNjidS-30" style="edgeStyle=orthogonalEdgeStyle;rounded=0;orthogonalLoop=1;jettySize=auto;html=1;entryX=0;entryY=0;entryDx=0;entryDy=92.5;entryPerimeter=0;" edge="1" source="wZhwh8XhNNYU95tNjidS-28" parent="1">
          <mxGeometry relative="1" as="geometry">
            <mxPoint x="-11.999999999999773" y="277.5" as="targetPoint" />
          </mxGeometry>
        </mxCell>
        <mxCell id="wZhwh8XhNNYU95tNjidS-32" value="Fysisk server (onprem)" style="text;html=1;align=center;verticalAlign=middle;resizable=0;points=[];autosize=1;strokeColor=none;fillColor=none;fontSize=20;fontStyle=1" vertex="1" parent="1">
          <mxGeometry x="34" y="-242" width="222" height="36" as="geometry" />
        </mxCell>
        <mxCell id="wZhwh8XhNNYU95tNjidS-33" value="Fysisk server (onprem)" style="text;html=1;align=center;verticalAlign=middle;resizable=0;points=[];autosize=1;strokeColor=none;fillColor=none;fontSize=20;fontStyle=1" vertex="1" parent="1">
          <mxGeometry x="554" y="-242" width="222" height="36" as="geometry" />
        </mxCell>
        <mxCell id="wZhwh8XhNNYU95tNjidS-34" value="Fysisk server (onprem)" style="text;html=1;align=center;verticalAlign=middle;resizable=0;points=[];autosize=1;strokeColor=none;fillColor=none;fontSize=20;fontStyle=1" vertex="1" parent="1">
          <mxGeometry x="552" y="151" width="222" height="36" as="geometry" />
        </mxCell>
        <mxCell id="wZhwh8XhNNYU95tNjidS-35" value="I skyen (vercel, Azure, AWS, ...)" style="text;html=1;align=center;verticalAlign=middle;resizable=0;points=[];autosize=1;strokeColor=none;fillColor=none;fontSize=20;fontStyle=1" vertex="1" parent="1">
          <mxGeometry x="18" y="137" width="300" height="40" as="geometry" />
        </mxCell>
        <mxCell id="wZhwh8XhNNYU95tNjidS-41" value="" style="group" vertex="1" connectable="0" parent="1">
          <mxGeometry x="-19" y="522" width="380" height="210" as="geometry" />
        </mxCell>
        <mxCell id="wZhwh8XhNNYU95tNjidS-42" value="&lt;font style=&quot;font-size: 20px;&quot;&gt;SERVER - Frontend&lt;/font&gt;&lt;div&gt;&lt;span style=&quot;font-size: 20px;&quot;&gt;&lt;br&gt;&lt;/span&gt;&lt;div&gt;&lt;br&gt;&lt;/div&gt;&lt;div&gt;&lt;br&gt;&lt;/div&gt;&lt;div&gt;&lt;br&gt;&lt;/div&gt;&lt;/div&gt;" style="ellipse;shape=cloud;whiteSpace=wrap;html=1;" vertex="1" parent="wZhwh8XhNNYU95tNjidS-41">
          <mxGeometry x="-40" y="-29" width="410" height="240" as="geometry" />
        </mxCell>
        <mxCell id="wZhwh8XhNNYU95tNjidS-43" value="Node&lt;div&gt;HTML, CSS&lt;/div&gt;&lt;div&gt;Vanilla JS&lt;/div&gt;" style="whiteSpace=wrap;html=1;aspect=fixed;fontSize=14;" vertex="1" parent="wZhwh8XhNNYU95tNjidS-41">
          <mxGeometry x="130" y="80" width="100" height="100" as="geometry" />
        </mxCell>
        <mxCell id="wZhwh8XhNNYU95tNjidS-44" value="&lt;font style=&quot;font-size: 20px;&quot;&gt;KLIENT:&amp;nbsp;&lt;/font&gt;&lt;div&gt;&lt;font style=&quot;font-size: 20px;&quot;&gt;Nettleser&lt;/font&gt;&lt;/div&gt;" style="shape=note;whiteSpace=wrap;html=1;backgroundOutline=1;darkOpacity=0.05;" vertex="1" parent="1">
          <mxGeometry x="-309" y="514" width="150" height="200" as="geometry" />
        </mxCell>
        <mxCell id="wZhwh8XhNNYU95tNjidS-45" style="edgeStyle=orthogonalEdgeStyle;rounded=0;orthogonalLoop=1;jettySize=auto;html=1;" edge="1" target="wZhwh8XhNNYU95tNjidS-37" parent="1">
          <mxGeometry relative="1" as="geometry">
            <mxPoint x="311" y="624.5" as="sourcePoint" />
          </mxGeometry>
        </mxCell>
        <mxCell id="wZhwh8XhNNYU95tNjidS-46" style="edgeStyle=orthogonalEdgeStyle;rounded=0;orthogonalLoop=1;jettySize=auto;html=1;entryX=0;entryY=0;entryDx=0;entryDy=92.5;entryPerimeter=0;" edge="1" source="wZhwh8XhNNYU95tNjidS-44" parent="1">
          <mxGeometry relative="1" as="geometry">
            <mxPoint x="-18.999999999999773" y="614.5" as="targetPoint" />
          </mxGeometry>
        </mxCell>
        <mxCell id="wZhwh8XhNNYU95tNjidS-47" value="Fysisk server (onprem)" style="text;html=1;align=center;verticalAlign=middle;resizable=0;points=[];autosize=1;strokeColor=none;fillColor=none;fontSize=20;fontStyle=1" vertex="1" parent="1">
          <mxGeometry x="545" y="488" width="222" height="36" as="geometry" />
        </mxCell>
        <mxCell id="wZhwh8XhNNYU95tNjidS-48" value="I skyen (vercel, Azure, AWS, ...)" style="text;html=1;align=center;verticalAlign=middle;resizable=0;points=[];autosize=1;strokeColor=none;fillColor=none;fontSize=20;fontStyle=1" vertex="1" parent="1">
          <mxGeometry x="11" y="474" width="300" height="40" as="geometry" />
        </mxCell>
        <mxCell id="wZhwh8XhNNYU95tNjidS-37" value="&lt;font style=&quot;font-size: 20px;&quot;&gt;SERVER - Backend&lt;/font&gt;&lt;div&gt;&lt;span style=&quot;font-size: 20px;&quot;&gt;&lt;br&gt;&lt;/span&gt;&lt;div&gt;&lt;br&gt;&lt;/div&gt;&lt;div&gt;&lt;br&gt;&lt;/div&gt;&lt;div&gt;&lt;br&gt;&lt;/div&gt;&lt;div&gt;&lt;br&gt;&lt;/div&gt;&lt;div&gt;&lt;br&gt;&lt;/div&gt;&lt;div&gt;&lt;br&gt;&lt;/div&gt;&lt;div&gt;&lt;br&gt;&lt;/div&gt;&lt;/div&gt;" style="shape=cube;whiteSpace=wrap;html=1;boundedLbl=1;backgroundOutline=1;darkOpacity=0.05;darkOpacity2=0.1;" vertex="1" parent="1">
          <mxGeometry x="491" y="522" width="330" height="205" as="geometry" />
        </mxCell>
        <mxCell id="wZhwh8XhNNYU95tNjidS-38" value="Supabase" style="shape=cylinder3;whiteSpace=wrap;html=1;boundedLbl=1;backgroundOutline=1;size=15;fontSize=14;" vertex="1" parent="1">
          <mxGeometry x="631.5" y="818" width="80" height="80" as="geometry" />
        </mxCell>
        <mxCell id="wZhwh8XhNNYU95tNjidS-39" value="" style="edgeStyle=orthogonalEdgeStyle;rounded=0;orthogonalLoop=1;jettySize=auto;html=1;" edge="1" parent="1" source="wZhwh8XhNNYU95tNjidS-40" target="wZhwh8XhNNYU95tNjidS-38">
          <mxGeometry relative="1" as="geometry" />
        </mxCell>
        <mxCell id="wZhwh8XhNNYU95tNjidS-40" value="Node&lt;div&gt;ExpressJS&lt;/div&gt;" style="whiteSpace=wrap;html=1;aspect=fixed;fontSize=14;" vertex="1" parent="1">
          <mxGeometry x="624" y="597" width="95" height="95" as="geometry" />
        </mxCell>
      </root>
    </mxGraphModel>
  </diagram>
</mxfile>
